PathFileType	4	(X/Y/Z)	c:/Users/goper/Files/vsCode/490R/osim_files/C08/C08_Slow_06.trc
DataRate	CameraRate	NumFrames	NumMarkers	Units                	OrigDataRate	OrigDataStartFrame	OrigNumFrames
250.00	250.00	7	36	mm	250.0	1642	2626
                Frame#	Time	LPSIS			LASIS			LTH1			LTH2			LTH3			LTH4			LLFE			LMFE			LSH1			LSH2			LSH3			LSH4			LLMAL			LMMAL			LCAL			LMTP5			LTOE			LMTP1			RPSIS			RASIS			RTH1			RTH2			RTH3			RTH4			RLFE			RMFE			RSH1			RSH2			RSH3			RSH4			RLMAL			RMMAL			RCAL			RMTP1			RTOE			RMTP5		
		X1	Y1	Z1	X2	Y2	Z2	X3	Y3	Z3	X4	Y4	Z4	X5	Y5	Z5	X6	Y6	Z6	X7	Y7	Z7	X8	Y8	Z8	X9	Y9	Z9	X10	Y10	Z10	X11	Y11	Z11	X12	Y12	Z12	X13	Y13	Z13	X14	Y14	Z14	X15	Y15	Z15	X16	Y16	Z16	X17	Y17	Z17	X18	Y18	Z18	X19	Y19	Z19	X20	Y20	Z20	X21	Y21	Z21	X22	Y22	Z22	X23	Y23	Z23	X24	Y24	Z24	X25	Y25	Z25	X26	Y26	Z26	X27	Y27	Z27	X28	Y28	Z28	X29	Y29	Z29	X30	Y30	Z30	X31	Y31	Z31	X32	Y32	Z32	X33	Y33	Z33	X34	Y34	Z34	X35	Y35	Z35	X36	Y36	Z36

1642	6.56400	-1171.30884	1045.64099	155.16600	-1370.88171	1009.91455	255.01280	-1314.29700	730.87677	330.80756	-1331.19031	654.38196	321.61911	-1345.29382	581.12781	321.24890	-1408.74304	674.70636	322.15695	-1350.08142	534.33679	315.95593	-1392.72791	519.76056	193.18753	-1250.90576	486.66806	313.76700	-1219.87598	449.72079	311.51913	-1294.02954	444.50052	326.85349	-1259.35486	414.43573	322.53281	-1036.65662	253.77708	254.25467	-1074.20837	230.64000	175.21169	-991.45325	281.76804	184.99355	-1053.81909	130.33740	301.14807	-1118.03503	93.86358	256.56979	-1090.78906	97.71693	199.37494	-1175.81042	1045.85681	95.33415	-1378.89526	1017.86987	14.56811	-1334.36218	751.54663	-44.13375	-1342.89246	674.32336	-23.26666	-1348.09558	596.75946	-19.37360	-1415.22388	686.36487	3.93153	-1356.77783	525.14539	5.24913	-1351.92688	520.67834	130.42271	-1301.12183	440.25299	-11.89474	-1307.09314	395.71460	-15.37902	-1362.56775	440.24045	-1.59180	-1360.40552	395.76736	-6.01281	-1291.82007	99.29318	50.98354	-1325.73315	104.99373	138.24915	-1236.82764	77.33026	123.65575	-1453.43640	45.27800	124.74818	-1469.30823	62.77866	69.83480	-1415.52087	44.24609	12.47336
1643	6.56800	-1174.91077	1045.89563	155.06241	-1374.52808	1010.54645	254.37115	-1320.17139	731.66620	330.63623	-1337.51062	655.27972	321.40665	-1352.14282	582.14569	320.99081	-1414.98120	676.09314	321.69754	-1357.27881	535.35870	315.63272	-1399.96729	521.14276	192.81929	-1258.18323	487.50507	313.02118	-1227.41699	450.48672	310.82376	-1301.55615	445.71838	326.55817	-1267.09363	415.44189	322.33334	-1045.27722	253.33057	254.38754	-1082.95581	230.17468	175.13292	-999.88660	280.48566	184.93002	-1063.70630	130.00551	301.48801	-1128.18359	93.98595	257.00000	-1100.84399	97.42444	199.76347	-1179.32605	1046.20557	95.14447	-1382.20300	1018.12250	13.91105	-1336.78479	751.65900	-44.36736	-1344.78772	674.46826	-23.54136	-1349.58716	596.76990	-19.68314	-1417.18542	686.11737	3.69270	-1357.87170	525.15216	5.09395	-1353.23706	520.74524	130.40027	-1301.95959	440.44150	-11.96200	-1307.83081	395.85715	-15.44993	-1363.43188	440.25333	-1.80160	-1361.11938	395.78470	-6.16771	-1291.91187	99.40116	50.98957	-1325.87524	105.11102	138.24052	-1236.89160	77.47002	123.65993	-1453.46277	45.24000	124.72467	-1469.39209	62.69548	69.75829	-1415.54919	44.19837	12.44351
1644	6.57200	-1177.84839	1047.48621	154.24480	-1378.26404	1011.22577	253.77309	-1325.95300	732.45178	330.44351	-1343.87109	656.17725	321.19760	-1358.92957	583.14313	320.77472	-1421.28687	677.38098	321.04865	-1364.39966	536.36499	315.30823	-1407.07861	522.50372	192.41454	-1265.45032	487.75443	311.30984	-1235.00867	451.11890	310.26291	-1309.10120	446.81784	326.21249	-1274.79724	416.37628	322.04074	-1054.14844	252.48329	254.39540	-1091.91382	229.50317	175.15579	-1008.36932	279.03162	184.94469	-1073.75562	129.49281	301.82181	-1138.52551	93.97887	257.33929	-1111.14844	96.99468	200.11847	-1182.74548	1046.54126	94.90099	-1385.45422	1018.37189	13.23399	-1338.85803	751.96509	-44.63797	-1346.75037	674.55670	-23.73213	-1351.28003	596.91852	-19.55478	-1419.13367	685.90302	3.44472	-1358.99988	525.17908	4.92544	-1354.35950	520.80957	130.26108	-1302.67041	440.67368	-12.15702	-1308.45520	396.04492	-15.51959	-1364.20801	440.26669	-1.94745	-1361.80054	395.83691	-6.36280	-1292.03748	99.50990	51.00576	-1326.00098	105.18635	138.22330	-1236.96777	77.61834	123.68610	-1453.48315	45.22232	124.70025	-1469.46582	62.60957	69.66995	-1415.57458	44.17419	12.41460
1645	6.57600	-1181.31262	1047.74927	154.12567	-1381.96509	1011.90808	253.09338	-1331.74329	733.24139	330.24741	-1350.10339	657.06561	320.97980	-1365.70020	584.14240	320.53610	-1427.44946	678.74542	320.46603	-1371.51648	537.43127	314.99857	-1414.11304	523.89874	191.96063	-1273.10425	488.77713	311.41791	-1242.57397	451.67374	309.70483	-1316.60327	447.84439	325.82892	-1282.52161	417.16843	321.72519	-1063.04358	251.45193	254.44257	-1101.26440	228.37521	175.31261	-1016.84882	277.40884	185.03268	-1084.02649	128.79950	302.11292	-1149.00574	93.82965	257.55878	-1121.58826	96.51894	200.39160	-1186.22156	1046.86255	94.67422	-1388.67993	1018.58606	12.59801	-1341.21497	752.09833	-44.84516	-1348.61389	674.66406	-23.96385	-1352.73608	596.99182	-19.62194	-1421.11438	685.66626	3.20168	-1360.08936	525.25830	4.73016	-1355.46509	520.82959	130.11063	-1303.47913	440.77698	-12.14301	-1309.11462	396.23145	-15.59301	-1364.98853	440.33231	-2.14207	-1362.45911	395.86942	-6.48329	-1292.18286	99.59551	51.00449	-1326.10608	105.29462	138.21063	-1237.04761	77.74210	123.69438	-1453.52002	45.18490	124.67867	-1469.51794	62.50055	69.62539	-1415.61475	44.11602	12.38544
1646	6.58000	-1184.89868	1047.98242	153.99292	-1385.62866	1012.57843	252.45612	-1337.57568	734.03143	330.08618	-1356.35120	657.96069	320.80399	-1372.44214	585.17462	320.31775	-1433.58008	680.14319	319.79059	-1378.59656	538.46564	314.65799	-1421.02161	525.28040	191.48143	-1280.12646	489.02243	310.05887	-1250.07971	452.02066	309.16724	-1324.13257	448.78613	325.42749	-1290.27356	417.86356	321.40515	-1072.06580	250.24823	254.54558	-1110.30200	227.49347	175.39452	-1025.36230	275.56903	185.24791	-1094.46997	127.89469	302.38846	-1159.73865	93.58076	257.73416	-1132.23230	95.85367	200.65703	-1189.62817	1047.17883	94.44372	-1391.93213	1018.82776	12.02958	-1343.47717	752.27191	-45.07734	-1350.51013	674.79327	-24.22376	-1354.22681	597.03644	-19.61423	-1423.02637	685.42029	2.99168	-1361.17908	525.30280	4.57386	-1356.68750	520.86072	129.95381	-1304.24939	441.00266	-12.20145	-1309.77637	396.45386	-15.67695	-1365.76819	440.40988	-2.32939	-1363.11646	395.94409	-6.65196	-1292.33362	99.70676	51.03131	-1326.22925	105.41298	138.19901	-1237.11926	77.86278	123.68129	-1453.52075	45.14237	124.66432	-1469.58472	62.41129	69.58646	-1415.63708	44.07739	12.35093
1647	6.58400	-1188.42786	1048.22083	153.89250	-1389.33936	1013.30060	251.77548	-1343.34509	734.82935	329.92053	-1362.63464	658.90332	320.67752	-1380.27136	586.13013	319.45102	-1439.75854	681.54236	319.20255	-1385.60059	539.44794	314.28629	-1427.76379	526.69244	190.96892	-1287.78162	489.83722	310.30566	-1257.56665	452.31534	308.62793	-1331.70837	449.63681	324.98523	-1297.99841	418.46954	321.02100	-1081.23291	248.85420	254.71399	-1119.41711	226.50784	175.46751	-1033.97205	273.56302	185.52649	-1105.18494	126.85716	302.64108	-1170.65613	93.24671	257.84137	-1142.94812	95.06957	200.80653	-1193.04736	1047.48450	94.25829	-1395.15869	1019.02228	11.42845	-1345.73743	752.44800	-45.28996	-1352.35754	674.88580	-24.39571	-1355.70947	597.15912	-19.69051	-1424.98730	685.18982	2.74003	-1362.19849	525.38745	4.36544	-1358.07080	520.95203	129.78278	-1305.10999	441.26776	-12.27741	-1310.43628	396.66675	-15.75421	-1366.50635	440.45132	-2.47384	-1364.03503	395.90747	-6.58154	-1292.44910	99.80072	51.02951	-1326.38464	105.54337	138.17441	-1237.44348	77.99504	123.79623	-1453.57556	45.12074	124.63823	-1469.63647	62.33313	69.54095	-1415.67188	44.02745	12.31930
1648	6.58800	-1191.90637	1048.49060	153.77327	-1392.92688	1013.95898	251.14830	-1349.09814	735.61322	329.78363	-1368.70740	659.80585	320.47253	-1386.99609	587.14990	319.18777	-1445.74670	682.97089	318.49991	-1392.61511	540.44958	313.87103	-1434.38318	528.05139	190.52077	-1294.95959	490.24429	309.74396	-1265.13025	452.55063	308.18539	-1339.27539	450.35956	324.49350	-1305.81458	418.97195	320.59741	-1090.45886	247.29170	254.88335	-1128.57275	225.37790	175.58217	-1042.64551	271.37009	185.89250	-1116.02075	125.64006	302.87527	-1181.68555	92.84254	257.92032	-1153.82922	94.24014	200.97475	-1196.44861	1047.76245	94.05639	-1398.33838	1019.19348	10.92567	-1348.01013	752.57751	-45.48029	-1354.18005	674.99011	-24.57168	-1357.02600	597.09973	-19.83815	-1426.85291	684.93671	2.53844	-1363.25159	525.45245	4.22383	-1359.40930	521.04602	129.62215	-1305.74316	441.52502	-12.40787	-1310.97351	396.89288	-15.83393	-1367.29358	440.53046	-2.63584	-1364.69653	395.89713	-6.85245	-1292.56018	99.92249	51.02918	-1326.56738	105.68604	138.15323	-1236.90076	78.35507	123.42807	-1453.62109	45.10247	124.59256	-1469.71619	62.24870	69.49729	-1415.69604	43.97327	12.29605
